<svg class="svg-icon" style="width: 1em; height: 1em;vertical-align: middle;fill: currentColor;overflow: hidden;" viewBox="0 0 1024 1024" version="1.1" xmlns="http://www.w3.org/2000/svg"><path d="M223.762963 374.518519c-24.651852 18.014815-63.525926 46.459259-65.422222 56.888888-2.844444 15.17037 28.444444 95.762963 54.044444 128.948149 19.911111 25.6 127.051852 198.162963 174.459259 274.962963-6.637037-80.592593-31.288889-150.755556-69.214814-224.711112-33.185185-64.474074-76.8-133.688889-90.074074-205.748148-1.896296-10.42963-2.844444-20.859259-3.792593-30.34074z m309.096296-209.540741v-20.859259h7.585185v20.859259h7.585186v16.118518h34.133333v2.844445-2.844445l121.362963 172.562963 163.081481 217.125926v18.962963L614.4 274.962963h-21.807407v28.444444h21.807407l253.155556 309.096297v18.962963L614.4 344.177778h-388.740741V303.407407H246.518519v-28.444444h-20.85926v-40.77037h56.888889v-53.096297h168.770371v-12.325926h46.459259V113.777778h6.637037v68.266666h11.377778v-16.118518h17.066666v-0.948148z m319.525926 463.644444v15.170371l14.222222 15.17037V644.740741l-14.222222-16.118519z m-208.592592-221.866666v18.962963c6.637037 6.637037 12.325926 13.274074 18.962963 19.911111v-18.962963c-6.637037-6.637037-12.325926-13.274074-18.962963-19.911111z m29.392592 32.237037v18.962963c5.688889 6.637037 12.325926 13.274074 18.014815 18.962963v-18.962963c-5.688889-6.637037-11.377778-13.274074-18.014815-18.962963z m30.340741 31.288888v18.014815c5.688889 6.637037 11.377778 12.325926 17.066667 18.962963v-18.014815c-5.688889-6.637037-11.377778-12.325926-17.066667-18.962963z m29.392593 32.237038v17.066666c5.688889 5.688889 11.377778 12.325926 17.066666 18.014815v-17.066667c-5.688889-6.637037-11.377778-12.325926-17.066666-18.014814z m30.34074 31.288888v17.066667c5.688889 5.688889 10.42963 11.377778 16.118519 17.066667v-17.066667c-5.688889-5.688889-11.377778-11.377778-16.118519-17.066667z m29.392593 31.288889v16.118519c4.740741 5.688889 10.42963 11.377778 15.17037 17.066666v-16.118518c-4.740741-5.688889-10.42963-11.377778-15.17037-17.066667z m29.392592 32.237037v15.170371c4.740741 5.688889 10.42963 10.42963 15.170371 16.118518v-15.17037c-4.740741-5.688889-9.481481-10.42963-15.170371-16.118519zM614.4 375.466667H457.955556c16.118519 2.844444 31.288889 6.637037 46.459259 10.429629 11.377778 2.844444 24.651852 5.688889 37.925926 10.42963h72.059259v-0.948148l18.962963 20.859259v-19.911111l-18.962963-20.859259zM498.725926 221.866667H540.444444v12.325926h19.911112v-32.237037H303.407407v32.237037h17.066667v-12.325926h41.718519v12.325926h18.962963v-12.325926h41.718518v12.325926h19.911111v-12.325926h41.718519v12.325926h13.274074v-12.325926h0.948148z m82.488889 81.54074v-28.444444H549.925926v28.444444h31.288889z m-281.6-28.444444v28.444444h31.288889v-28.444444h-31.288889z m-11.377778 28.444444v-28.444444h-31.288889v28.444444h31.288889z m53.096296-28.444444v28.444444h31.288889v-28.444444H341.333333z m41.718519 0v28.444444h31.288889v-28.444444h-31.288889z m41.718518 0v28.444444h31.288889v-28.444444h-31.288889z m41.718519 0v28.444444h31.288889v-28.444444h-31.288889z m41.718518 0v28.444444h31.288889v-28.444444h-31.288889z m-263.585185 85.333333S512 399.17037 559.407407 424.77037c47.407407 25.6 360.296296 307.2 360.296297 307.2L901.688889 872.296296H410.548148c-4.740741-250.311111-165.925926-361.244444-165.925926-512z m395.377778 182.044445c-4.740741 0-9.481481 5.688889-9.481481 13.274074 0 7.585185 3.792593 14.222222 9.481481 14.222222 4.740741 0 9.481481-5.688889 9.481481-13.274074 0-8.533333-3.792593-14.222222-9.481481-14.222222z m-30.340741-23.703704c-5.688889 0-9.481481 6.637037-9.481481 14.222222 0 8.533333 4.740741 15.17037 9.481481 15.170371 5.688889 0 9.481481-6.637037 9.481482-14.222223 0.948148-8.533333-3.792593-15.17037-9.481482-15.17037z m60.681482 47.407407c-4.740741 0-8.533333 5.688889-8.533334 13.274075 0 7.585185 3.792593 13.274074 8.533334 13.274074s8.533333-5.688889 8.533333-12.325926c0-8.533333-3.792593-14.222222-8.533333-14.222223z m30.34074 22.755556c-4.740741 0-7.585185 5.688889-7.585185 12.325926 0 6.637037 3.792593 12.325926 7.585185 12.325926 4.740741 0 7.585185-5.688889 7.585186-12.325926 0-6.637037-2.844444-11.377778-7.585186-12.325926z m30.340741 23.703704c-3.792593 0-7.585185 4.740741-7.585185 11.377777s2.844444 11.377778 7.585185 11.377778c3.792593 0 7.585185-4.740741 7.585185-11.377778 0-5.688889-3.792593-11.377778-7.585185-11.377777z m30.340741 23.703703c-3.792593 0-6.637037 4.740741-6.637037 10.42963 0 5.688889 2.844444 10.42963 6.637037 10.42963 3.792593 0 6.637037-4.740741 6.637037-10.42963 0-5.688889-2.844444-10.42963-6.637037-10.42963z m30.340741 23.703704c-3.792593 0-6.637037 3.792593-6.637037 9.481482s2.844444 9.481481 6.637037 9.481481c3.792593 0 6.637037-3.792593 6.637037-9.481481-0.948148-4.740741-3.792593-9.481481-6.637037-9.481482z m30.34074 23.703704c-2.844444 0-5.688889 3.792593-5.688888 8.533333s2.844444 8.533333 5.688888 8.533333 5.688889-3.792593 5.688889-8.533333-2.844444-8.533333-5.688889-8.533333z m30.340741 23.703704c-2.844444 0-4.740741 3.792593-4.740741 7.585185s1.896296 7.585185 4.740741 7.585185 4.740741-3.792593 4.740741-7.585185c0-4.740741-1.896296-7.585185-4.740741-7.585185z m30.340741 23.703703c-2.844444 0-4.740741 2.844444-4.740741 6.637037 0 3.792593 1.896296 6.637037 4.740741 6.637037s4.740741-2.844444 4.740741-6.637037c-0.948148-3.792593-2.844444-6.637037-4.740741-6.637037zM433.303704 587.851852c0 0.948148-0.948148 0.948148-0.948148 0.948148-0.948148 0.948148-2.844444 1.896296-4.740741 1.896296s-3.792593-0.948148-4.740741-1.896296l-0.948148-0.948148c-0.948148 0-0.948148 0.948148-1.896296 1.896296-1.896296 1.896296-2.844444 4.740741-2.844445 7.585185 0 2.844444 0.948148 5.688889 2.844445 7.585186 1.896296 1.896296 4.740741 2.844444 7.585185 2.844444 2.844444 0 5.688889-0.948148 7.585185-2.844444 1.896296-1.896296 2.844444-4.740741 2.844444-7.585186 0-2.844444-0.948148-5.688889-2.844444-7.585185 0-0.948148-0.948148-1.896296-1.896296-1.896296z m-8.533334-9.481482h5.688889v-5.688889-0.948148 0.948148c0 0.948148-0.948148 2.844444-2.844444 2.844445-0.948148 0-2.844444-0.948148-2.844445-2.844445v-1.896296 7.585185z m4.740741 7.585186h-3.792592c0.948148 0 0.948148 0.948148 1.896296 0.948148 0 0 0.948148 0 1.896296-0.948148z m-1.896296-32.237037c0.948148 0 2.844444 0.948148 2.844444 2.844444v0-11.377778-0.948148 0.948148c0 0.948148-0.948148 2.844444-2.844444 2.844445-0.948148 0-2.844444-0.948148-2.844445-2.844445v-1.896296V558.459259v-0.948148c0-2.844444 0.948148-3.792593 2.844445-3.792592z m0-28.444445c0.948148 0 2.844444 0.948148 2.844444 2.844445v0-11.377778-0.948148 0.948148c0 0.948148-0.948148 2.844444-2.844444 2.844444-0.948148 0-2.844444-0.948148-2.844445-2.844444v-1.896297V530.014815v-1.896296c0-1.896296 0.948148-2.844444 2.844445-2.844445z m0-68.266667c8.533333 0 15.17037 6.637037 15.17037 15.170371 0 6.637037-3.792593 11.377778-8.533333 14.222222v12.325926c0 1.896296-0.948148 3.792593-1.896296 4.740741-0.948148 0.948148-1.896296 0.948148-1.896297 1.896296v3.792593c0.948148 0 1.896296 0.948148 1.896297 1.896296 0.948148 0.948148 1.896296 2.844444 1.896296 4.740741v11.377777c0 1.896296-0.948148 3.792593-1.896296 4.740741-0.948148 0.948148-1.896296 0.948148-1.896297 1.896296v3.792593c0.948148 0 1.896296 0.948148 1.896297 1.896296 0.948148 0.948148 1.896296 2.844444 1.896296 4.740741v11.377778c0 1.896296-0.948148 3.792593-1.896296 4.740741-0.948148 0.948148-1.896296 0.948148-1.896297 1.896296v3.792592c0.948148 0 1.896296 0.948148 1.896297 1.896297 0.948148 0.948148 1.896296 2.844444 1.896296 4.74074v6.637038c2.844444 0.948148 4.740741 2.844444 6.637037 4.74074 3.792593 3.792593 5.688889 8.533333 5.688889 14.222222s-1.896296 10.42963-5.688889 14.222223c-2.844444 2.844444-5.688889 3.792593-8.533333 4.74074v57.837037c18.014815 0 21.807407-8.533333 24.651851-17.066666 0.948148-2.844444 2.844444-6.637037 4.740741-9.481482h-1.896296v-8.533333h10.429629l12.325926-0.948148-9.481481 7.585185c-3.792593 3.792593-6.637037 8.533333-8.533333 14.222222-4.740741 12.325926-9.481481 24.651852-36.977778 21.807408-27.496296 1.896296-32.237037-9.481481-36.977778-21.807408-1.896296-4.740741-3.792593-10.42963-8.533333-14.222222l-8.533334-7.585185 12.325926 0.948148h10.42963v8.533333h-1.896296c1.896296 2.844444 2.844444 6.637037 4.74074 9.481482 3.792593 8.533333 6.637037 17.066667 24.651852 17.066666V616.296296c-3.792593-0.948148-7.585185-2.844444-9.481481-5.688889-4.740741-2.844444-6.637037-7.585185-6.637037-13.274074 0-5.688889 1.896296-10.42963 5.688889-14.222222 1.896296-1.896296 3.792593-3.792593 6.637037-4.740741v-6.637037c0-1.896296 0.948148-3.792593 1.896296-4.74074 0.948148-0.948148 1.896296-0.948148 2.844444-1.896297v-3.792592c-0.948148 0-1.896296-0.948148-2.844444-1.896297-0.948148-0.948148-1.896296-2.844444-1.896296-4.74074v-11.377778c0-1.896296 0.948148-3.792593 1.896296-4.740741 0.948148-0.948148 1.896296-0.948148 2.844444-1.896296v-3.792593c-0.948148 0-1.896296-0.948148-2.844444-1.896296-0.948148-0.948148-1.896296-2.844444-1.896296-4.740741v-11.377778c0-1.896296 0.948148-3.792593 1.896296-4.74074 0.948148-0.948148 1.896296-0.948148 2.844444-1.896297v-2.844444c-0.948148 0-1.896296-0.948148-2.844444-1.896296-0.948148-0.948148-1.896296-2.844444-1.896296-4.740741v-11.377778-1.896296c-4.740741-2.844444-7.585185-7.585185-7.585186-13.274074 0-7.585185 6.637037-15.17037 15.170371-15.170371z m2.844444 30.340741H424.77037v14.222222-1.896296c0-1.896296 0.948148-2.844444 2.844445-2.844444 0.948148 0 2.844444 0.948148 2.844444 2.844444v0-12.325926z" fill="#ffffff" /></svg>